<svg xmlns="http://www.w3.org/2000/svg" xmlns:xlink="http://www.w3.org/1999/xlink" preserveAspectRatio="xMidYMid" width="25" height="25" viewBox="0 0 25 25">
  <defs>
    <style>
      .cls-1 {
        fill: #fff;
        fill-rule: evenodd;
      }
    </style>
  </defs>
  <path d="M24.799,23.933 L18.552,17.683 C18.550,17.680 18.546,17.679 18.543,17.677 C20.212,15.799 21.234,13.335 21.234,10.625 C21.234,4.757 16.480,-0.000 10.615,-0.000 C4.749,-0.000 -0.005,4.757 -0.005,10.625 C-0.005,16.493 4.749,21.250 10.615,21.250 C13.323,21.250 15.787,20.227 17.663,18.557 C17.666,18.560 17.666,18.564 17.666,18.564 L23.916,24.817 C24.038,24.939 24.198,25.000 24.357,25.000 C24.518,25.000 24.677,24.939 24.799,24.817 C25.043,24.573 25.043,24.177 24.799,23.933 ZM10.615,20.000 C5.448,20.000 1.245,15.794 1.245,10.625 C1.245,5.455 5.448,1.250 10.615,1.250 C15.781,1.250 19.985,5.455 19.985,10.625 C19.985,15.794 15.781,20.000 10.615,20.000 Z" class="cls-1"/>
</svg>
